<svg xmlns="http://www.w3.org/2000/svg" width="1600" height="900" viewBox="0 0 1600 900" role="img" aria-labelledby="title desc">
  <title id="title">Resorts near Kashid Beach</title>
  <desc id="desc">Scenic Kashid Beach style resort illustration with wide shoreline, sea and cottages.</desc>
  <rect width="1600" height="900" fill="#dff4ff"/>
  <path d="M0 462C240 445 386 480 635 458s362-96 581-86 258 75 384 59V900H0Z" fill="#4ba9c2"/>
  <path d="M0 640C223 602 418 690 668 648s392-70 611-24 215 57 321 42V900H0Z" fill="#efd8ae"/>
  <rect x="285" y="370" width="285" height="190" rx="18" fill="#fff8ef"/>
  <rect x="690" y="390" width="265" height="170" rx="18" fill="#fff5e9"/>
  <rect x="1075" y="355" width="260" height="205" rx="18" fill="#fffaf4"/>
  <path d="M0 330C210 280 432 348 625 320s393-111 616-75 254 84 359 59v110H0Z" fill="#c6e8f8" opacity=".5"/>
  <text x="110" y="118" fill="#1a4155" font-family="Georgia, serif" font-size="56" font-weight="700">Resorts Near Kashid Beach</text>
  <text x="110" y="178" fill="#1a4155" font-family="Georgia, serif" font-size="30">Scenic coastal stays for slower beach travel</text>
</svg>
