<svg xmlns="http://www.w3.org/2000/svg" width="1600" height="900" viewBox="0 0 1600 900" role="img" aria-labelledby="title desc">
  <title id="title">Budget hotels in Alibaug</title>
  <desc id="desc">Affordable Alibaug stay illustration with compact hotel buildings and a beachside backdrop.</desc>
  <rect width="1600" height="900" fill="#e6f5ff"/>
  <path d="M0 470C230 435 411 500 662 464s346-88 538-68 251 76 400 55V900H0Z" fill="#65b4c7"/>
  <path d="M0 635C230 620 403 672 633 647s407-68 617-38 237 45 350 26V900H0Z" fill="#f3dcb6"/>
  <rect x="250" y="375" width="220" height="210" rx="14" fill="#fffaf4"/>
  <rect x="530" y="410" width="220" height="175" rx="14" fill="#fff7ee"/>
  <rect x="810" y="340" width="220" height="245" rx="14" fill="#fff9f3"/>
  <rect x="1090" y="395" width="220" height="190" rx="14" fill="#fff6eb"/>
  <g fill="#c27d4a">
    <rect x="290" y="425" width="40" height="66"/><rect x="350" y="425" width="40" height="66"/><rect x="410" y="425" width="40" height="66"/>
    <rect x="570" y="454" width="40" height="66"/><rect x="630" y="454" width="40" height="66"/><rect x="690" y="454" width="40" height="66"/>
    <rect x="850" y="394" width="40" height="66"/><rect x="910" y="394" width="40" height="66"/><rect x="970" y="394" width="40" height="66"/>
  </g>
  <text x="110" y="120" fill="#193b4f" font-family="Georgia, serif" font-size="58" font-weight="700">Budget Hotels in Alibaug</text>
  <text x="110" y="180" fill="#193b4f" font-family="Georgia, serif" font-size="30">Affordable rooms close to the coast</text>
</svg>
