<svg xmlns="http://www.w3.org/2000/svg" width="1600" height="900" viewBox="0 0 1600 900" role="img" aria-labelledby="title desc">
  <title id="title">Group stay in Alibaug</title>
  <desc id="desc">Group stay illustration with large resort buildings, shared outdoor areas and coastal background.</desc>
  <rect width="1600" height="900" fill="#e4f6ff"/>
  <path d="M0 455C246 431 404 480 637 454s408-100 631-77 227 70 332 58V900H0Z" fill="#52acc3"/>
  <path d="M0 642C229 602 458 690 699 650s410-74 615-31 179 53 286 35V900H0Z" fill="#efd8ae"/>
  <rect x="255" y="350" width="370" height="210" rx="16" fill="#fff7ed"/>
  <rect x="705" y="365" width="290" height="195" rx="16" fill="#fffaf3"/>
  <rect x="1070" y="385" width="260" height="175" rx="16" fill="#fff5e9"/>
  <circle cx="755" cy="680" r="24" fill="#4c6d88"/><circle cx="815" cy="670" r="24" fill="#5f7f98"/><circle cx="875" cy="680" r="24" fill="#4c6d88"/><circle cx="935" cy="670" r="24" fill="#5f7f98"/>
  <text x="110" y="118" fill="#173f53" font-family="Georgia, serif" font-size="56" font-weight="700">Group Stay in Alibaug</text>
  <text x="110" y="178" fill="#173f53" font-family="Georgia, serif" font-size="30">Friends, reunions and coastal outing stays</text>
</svg>
